HIERARCHY
ROOT Hips
{
	OFFSET -0.756626 87.889206 8.048331
	CHANNELS 6 Xposition Yposition Zposition Zrotation Yrotation Xrotation 
	JOINT Spine
	{
		OFFSET 0.000000 8.814246 -2.080107
		CHANNELS 3 Zrotation Yrotation Xrotation
		JOINT Spine1
		{
			OFFSET -0.000000 8.844141 0.000000
			CHANNELS 3 Zrotation Yrotation Xrotation
			JOINT Spine2
			{
				OFFSET -0.000000 11.682268 -0.000000
				CHANNELS 3 Zrotation Yrotation Xrotation
				JOINT Spine3
				{
					OFFSET 0.000000 11.746700 -0.000000
					CHANNELS 3 Zrotation Yrotation Xrotation
					JOINT Neck
					{
						OFFSET -0.000000 17.658264 0.000000
						CHANNELS 3 Zrotation Yrotation Xrotation
						JOINT Neck1
						{
							OFFSET -0.000000 5.101515 0.000000
							CHANNELS 3 Zrotation Yrotation Xrotation
							JOINT Head
							{
								OFFSET 0.000000 5.101515 -0.000000
								CHANNELS 3 Zrotation Yrotation Xrotation
								JOINT HeadEnd
								{
									OFFSET 0.000000 11.655085 -0.000000
									CHANNELS 3 Zrotation Yrotation Xrotation
									End Site
									{
										OFFSET 0.000000 0.000000 0.000000
									}
								}
							}
						}
					}
					JOINT RightShoulder
					{
						OFFSET -2.625389 11.175210 0.000000
						CHANNELS 3 Zrotation Yrotation Xrotation
						JOINT RightArm
						{
							OFFSET 0.000000 10.434715 0.000000
							CHANNELS 3 Zrotation Yrotation Xrotation
							JOINT RightForeArm
							{
								OFFSET -0.000000 29.628420 0.000000
								CHANNELS 3 Zrotation Yrotation Xrotation
								JOINT RightHand
								{
									OFFSET -0.000000 22.857611 -0.000000
									CHANNELS 3 Zrotation Yrotation Xrotation
									JOINT RightHandThumb1
									{
										OFFSET -2.867323 3.959563 2.944291
										CHANNELS 3 Zrotation Yrotation Xrotation
										JOINT RightHandThumb2
										{
											OFFSET -0.000000 3.350399 0.000000
											CHANNELS 3 Zrotation Yrotation Xrotation
											JOINT RightHandThumb3
											{
												OFFSET 0.000000 3.756509 0.000000
												CHANNELS 3 Zrotation Yrotation Xrotation
												JOINT RightHandThumb4
												{
													OFFSET 0.000000 3.147345 -0.000000
													CHANNELS 3 Zrotation Yrotation Xrotation
													End Site
													{
														OFFSET 0.000000 0.000000 0.000000
													}
												}
											}
										}
									}
									JOINT RightHandIndex1
									{
										OFFSET -0.086752 10.030893 2.345280
										CHANNELS 3 Zrotation Yrotation Xrotation
										JOINT RightHandIndex2
										{
											OFFSET 0.000000 4.061090 -0.000000
											CHANNELS 3 Zrotation Yrotation Xrotation
											JOINT RightHandIndex3
											{
												OFFSET 0.000000 3.248873 -0.000000
												CHANNELS 3 Zrotation Yrotation Xrotation
												JOINT RightHandIndex4
												{
													OFFSET 0.000000 2.639709 -0.000000
													CHANNELS 3 Zrotation Yrotation Xrotation
													End Site
													{
														OFFSET 0.000000 0.000000 0.000000
													}
												}
											}
										}
									}
									JOINT RightHandMiddle1
									{
										OFFSET 0.104102 9.502952 0.006768
										CHANNELS 3 Zrotation Yrotation Xrotation
										JOINT RightHandMiddle2
										{
											OFFSET -0.000000 4.568727 0.000000
											CHANNELS 3 Zrotation Yrotation Xrotation
											JOINT RightHandMiddle3
											{
												OFFSET -0.000000 3.654981 -0.000000
												CHANNELS 3 Zrotation Yrotation Xrotation
												JOINT RightHandMiddle4
												{
													OFFSET 0.000000 2.741236 -0.000000
													CHANNELS 3 Zrotation Yrotation Xrotation
													End Site
													{
														OFFSET 0.000000 0.000000 0.000000
													}
												}
											}
										}
									}
									JOINT RightHandRing1
									{
										OFFSET 0.086752 8.921708 -2.267442
										CHANNELS 3 Zrotation Yrotation Xrotation
										JOINT RightHandRing2
										{
											OFFSET -0.000000 4.061090 0.000000
											CHANNELS 3 Zrotation Yrotation Xrotation
											JOINT RightHandRing3
											{
												OFFSET -0.000000 3.654981 0.000000
												CHANNELS 3 Zrotation Yrotation Xrotation
												JOINT RightHandRing4
												{
													OFFSET 0.000000 2.741236 0.000000
													CHANNELS 3 Zrotation Yrotation Xrotation
													End Site
													{
														OFFSET 0.000000 0.000000 0.000000
													}
												}
											}
										}
									}
									JOINT RightHandPinky1
									{
										OFFSET -0.173504 7.976997 -4.467199
										CHANNELS 3 Zrotation Yrotation Xrotation
										JOINT RightHandPinky2
										{
											OFFSET 0.000000 3.350399 0.000000
											CHANNELS 3 Zrotation Yrotation Xrotation
											JOINT RightHandPinky3
											{
												OFFSET -0.000000 2.842763 -0.000000
												CHANNELS 3 Zrotation Yrotation Xrotation
												JOINT RightHandPinky4
												{
													OFFSET -0.000000 2.639709 0.000000
													CHANNELS 3 Zrotation Yrotation Xrotation
													End Site
													{
														OFFSET 0.000000 0.000000 0.000000
													}
												}
											}
										}
									}
									JOINT RightForeArmEnd
									{
										OFFSET 0.000000 0.000000 0.000000
										CHANNELS 3 Zrotation Yrotation Xrotation
										End Site
										{
											OFFSET 0.000000 0.000000 0.000000
										}
									}
								}
								JOINT RightArmEnd
								{
									OFFSET 0.000000 0.000000 0.000000
									CHANNELS 3 Zrotation Yrotation Xrotation
									End Site
									{
										OFFSET 0.000000 0.000000 0.000000
									}
								}
							}
						}
					}
					JOINT LeftShoulder
					{
						OFFSET 2.625389 11.175210 0.000000
						CHANNELS 3 Zrotation Yrotation Xrotation
						JOINT LeftArm
						{
							OFFSET 0.000000 10.813635 -0.000000
							CHANNELS 3 Zrotation Yrotation Xrotation
							JOINT LeftForeArm
							{
								OFFSET -0.000000 28.724781 -0.000000
								CHANNELS 3 Zrotation Yrotation Xrotation
								JOINT LeftHand
								{
									OFFSET 0.644384 25.716167 -0.328871
									CHANNELS 3 Zrotation Yrotation Xrotation
									JOINT LeftHandThumb1
									{
										OFFSET 2.867323 3.959563 2.944291
										CHANNELS 3 Zrotation Yrotation Xrotation
										JOINT LeftHandThumb2
										{
											OFFSET -0.000000 3.350399 -0.000000
											CHANNELS 3 Zrotation Yrotation Xrotation
											JOINT LeftHandThumb3
											{
												OFFSET 0.000000 3.756509 -0.000000
												CHANNELS 3 Zrotation Yrotation Xrotation
												JOINT LeftHandThumb4
												{
													OFFSET 0.000000 3.100000 0.000000
													CHANNELS 3 Zrotation Yrotation Xrotation
													End Site
													{
														OFFSET 0.000000 0.000000 0.000000
													}
												}
											}
										}
									}
									JOINT LeftHandIndex1
									{
										OFFSET 0.086752 10.030893 2.345280
										CHANNELS 3 Zrotation Yrotation Xrotation
										JOINT LeftHandIndex2
										{
											OFFSET -0.000000 4.061090 0.000000
											CHANNELS 3 Zrotation Yrotation Xrotation
											JOINT LeftHandIndex3
											{
												OFFSET -0.000000 3.248873 0.000000
												CHANNELS 3 Zrotation Yrotation Xrotation
												JOINT LeftHandIndex4
												{
													OFFSET -0.000000 2.639709 0.000000
													CHANNELS 3 Zrotation Yrotation Xrotation
													End Site
													{
														OFFSET 0.000000 0.000000 0.000000
													}
												}
											}
										}
									}
									JOINT LeftHandMiddle1
									{
										OFFSET -0.104102 9.502952 0.006768
										CHANNELS 3 Zrotation Yrotation Xrotation
										JOINT LeftHandMiddle2
										{
											OFFSET -0.000000 4.568727 0.000000
											CHANNELS 3 Zrotation Yrotation Xrotation
											JOINT LeftHandMiddle3
											{
												OFFSET -0.000000 3.654981 -0.000000
												CHANNELS 3 Zrotation Yrotation Xrotation
												JOINT LeftHandMiddle4
												{
													OFFSET -0.000000 2.741236 0.000000
													CHANNELS 3 Zrotation Yrotation Xrotation
													End Site
													{
														OFFSET 0.000000 0.000000 0.000000
													}
												}
											}
										}
									}
									JOINT LeftHandRing1
									{
										OFFSET -0.086752 8.921708 -2.267442
										CHANNELS 3 Zrotation Yrotation Xrotation
										JOINT LeftHandRing2
										{
											OFFSET -0.000000 4.061090 -0.000000
											CHANNELS 3 Zrotation Yrotation Xrotation
											JOINT LeftHandRing3
											{
												OFFSET -0.000000 3.654981 -0.000000
												CHANNELS 3 Zrotation Yrotation Xrotation
												JOINT LeftHandRing4
												{
													OFFSET -0.000000 2.741236 0.000000
													CHANNELS 3 Zrotation Yrotation Xrotation
													End Site
													{
														OFFSET 0.000000 0.000000 0.000000
													}
												}
											}
										}
									}
									JOINT LeftHandPinky1
									{
										OFFSET 0.173504 7.976997 -4.467199
										CHANNELS 3 Zrotation Yrotation Xrotation
										JOINT LeftHandPinky2
										{
											OFFSET -0.000000 3.350399 -0.000000
											CHANNELS 3 Zrotation Yrotation Xrotation
											JOINT LeftHandPinky3
											{
												OFFSET 0.000000 2.842763 0.000000
												CHANNELS 3 Zrotation Yrotation Xrotation
												JOINT LeftHandPinky4
												{
													OFFSET -0.000000 2.639709 -0.000000
													CHANNELS 3 Zrotation Yrotation Xrotation
													End Site
													{
														OFFSET 0.000000 0.000000 0.000000
													}
												}
											}
										}
									}
									JOINT LeftForeArmEnd
									{
										OFFSET 0.000000 0.000000 0.000000
										CHANNELS 3 Zrotation Yrotation Xrotation
										End Site
										{
											OFFSET 0.000000 0.000000 0.000000
										}
									}
								}
								JOINT LeftArmEnd
								{
									OFFSET 0.000000 0.000000 0.000000
									CHANNELS 3 Zrotation Yrotation Xrotation
									End Site
									{
										OFFSET 0.000000 0.000000 0.000000
									}
								}
							}
						}
					}
				}
			}
		}
	}
	JOINT RightUpLeg
	{
		OFFSET -11.289943 -0.000000 -0.000000
		CHANNELS 3 Zrotation Yrotation Xrotation
		JOINT RightLeg
		{
			OFFSET 0.000000 -38.200325 -0.000000
			CHANNELS 3 Zrotation Yrotation Xrotation
			JOINT RightFoot
			{
				OFFSET -0.000000 -39.900856 -0.000000
				CHANNELS 3 Zrotation Yrotation Xrotation
				JOINT RightToeBase
				{
					OFFSET 0.000000 0.000000 15.261641
					CHANNELS 3 Zrotation Yrotation Xrotation
					JOINT RightToeBaseEnd
					{
						OFFSET 0.000000 -0.000000 7.370709
						CHANNELS 3 Zrotation Yrotation Xrotation
						End Site
						{
							OFFSET 0.000000 0.000000 0.000000
						}
					}
				}
				JOINT RightLegEnd
				{
					OFFSET 0.000000 0.000000 0.000000
					CHANNELS 3 Zrotation Yrotation Xrotation
					End Site
					{
						OFFSET 0.000000 0.000000 0.000000
					}
				}
			}
			JOINT RightUpLegEnd
			{
				OFFSET 0.000000 0.000000 0.000000
				CHANNELS 3 Zrotation Yrotation Xrotation
				End Site
				{
					OFFSET 0.000000 0.000000 0.000000
				}
			}
		}
	}
	JOINT LeftUpLeg
	{
		OFFSET 11.315661 -0.000000 -0.000000
		CHANNELS 3 Zrotation Yrotation Xrotation
		JOINT LeftLeg
		{
			OFFSET -0.000000 -38.200325 -0.000000
			CHANNELS 3 Zrotation Yrotation Xrotation
			JOINT LeftFoot
			{
				OFFSET 0.000000 -39.900856 0.000000
				CHANNELS 3 Zrotation Yrotation Xrotation
				JOINT LeftToeBase
				{
					OFFSET 0.000000 -0.000000 15.261641
					CHANNELS 3 Zrotation Yrotation Xrotation
					JOINT LeftToeBaseEnd
					{
						OFFSET -0.000000 0.000000 7.539996
						CHANNELS 3 Zrotation Yrotation Xrotation
						End Site
						{
							OFFSET 0.000000 0.000000 0.000000
						}
					}
				}
				JOINT LeftLegEnd
				{
					OFFSET 0.000000 0.000000 0.000000
					CHANNELS 3 Zrotation Yrotation Xrotation
					End Site
					{
						OFFSET 0.000000 0.000000 0.000000
					}
				}
			}
			JOINT LeftUpLegEnd
			{
				OFFSET 0.000000 0.000000 0.000000
				CHANNELS 3 Zrotation Yrotation Xrotation
				End Site
				{
					OFFSET 0.000000 0.000000 0.000000
				}
			}
		}
	}
}
MOTION
Frames: 4
Frame Time: 0.016667
-0.756626 87.889206 8.048331 -0.433111 -0.161856 -20.490555 -1.253714 0.057735 10.748618 -0.395317 -0.047926 2.257653 7.025492 -3.858617 19.259773 6.878284 -0.379428 8.960392 23.987391 -4.075888 19.690468 4.711835 3.441765 4.182295 2.301837 2.358513 -18.949837 0.000000 0.000000 0.000000 95.488251 -0.995362 10.600363 49.537071 -16.243668 16.813417 0.135362 6.370945 22.778179 9.286608 20.120859 -3.120470 10.637670 -1.840801 39.870987 0.000000 0.000000 -25.919998 0.000001 0.000000 -18.000004 0.000000 0.000000 0.000000 11.005836 16.771198 -9.688408 9.301181 -0.778345 -2.817629 9.300372 0.208740 -2.655976 0.000000 0.000000 0.000000 12.212569 6.884880 -10.455374 9.384738 -0.904433 -1.147611 9.383337 0.081598 -0.988609 0.000000 0.000000 0.000000 18.098608 -8.849554 -10.572943 11.437636 1.858032 1.790814 11.431432 -0.110551 1.394409 0.000000 0.000000 0.000000 23.858847 -25.475784 -12.341703 12.002463 3.405901 5.642518 11.981696 -0.503586 4.811311 0.000000 0.000000 0.000000 0.000000 0.000000 0.000000 0.000000 0.000000 0.000000 -90.711365 0.192815 14.402103 -48.907730 45.482868 23.671806 -0.307286 -13.037479 42.194332 -5.212184 -19.692011 -11.010553 -10.637670 1.840801 39.870987 0.000000 0.000000 -25.919998 0.000000 0.000000 -18.000004 0.000000 0.000000 0.000000 -15.912718 16.763384 -9.838080 -8.778834 -0.797385 2.660213 -8.778028 0.190859 2.507616 0.000000 0.000000 0.000000 -13.861207 6.885338 -10.409781 -8.772221 -0.920419 1.069343 -8.770998 0.077901 0.915438 0.000000 0.000000 0.000000 -14.048879 -8.873737 -9.686749 -10.813765 1.858687 -1.701489 -10.808331 -0.100049 -1.320808 0.000000 0.000000 0.000000 -12.672462 -25.533302 -11.647363 -11.527593 3.443762 -5.422016 -11.507071 -0.474252 -4.623000 0.000000 0.000000 0.000000 0.000000 0.000000 0.000000 0.000000 0.000000 0.000000 -3.279429 3.686378 19.235682 -0.221735 -0.921880 13.743266 0.159236 0.367347 13.778310 -1.151772 0.850491 -18.567829 0.000000 0.000000 0.000000 0.000000 0.000000 0.000000 0.000000 0.000000 0.000000 9.119580 11.533113 26.626158 0.128753 1.118509 6.259383 -3.760126 11.369169 14.716410 0.748686 -1.873988 -15.910519 0.000000 0.000000 0.000000 0.000000 0.000000 0.000000 0.000000 0.000000 0.000000 
-0.542398 87.760635 7.934069 0.528976 0.149424 -20.423964 -1.406833 -0.042956 11.328577 -0.925312 -0.095059 1.689731 7.609860 -4.615926 19.518476 5.940084 -0.859453 8.849082 23.167181 -3.744045 19.924715 3.952124 4.678611 4.465998 1.436598 1.450912 -20.640574 0.000000 0.000000 0.000000 94.359962 -1.043912 10.554483 49.923569 -19.251036 17.992994 -0.104893 10.001743 22.638092 9.418171 20.888412 -3.070113 10.741582 -1.837736 39.809231 -0.000003 -0.000017 -26.403200 -0.000014 0.000035 -18.306057 0.000002 -0.000007 -0.000002 10.962556 16.766306 -10.507118 9.344393 -0.756166 -2.602329 9.414162 0.206703 -2.475073 -0.000012 0.000008 -0.000004 12.133756 6.886524 -11.324866 9.339006 -0.907573 -1.049022 9.398420 0.075976 -0.893512 0.000003 -0.000024 0.000019 18.323017 -8.875832 -10.886031 11.306088 1.831489 1.563639 11.211938 -0.117243 1.223697 -0.000013 -0.000885 0.000024 24.035690 -25.295242 -12.142134 11.815519 3.487132 4.700006 11.745297 -0.413698 4.016902 0.000015 0.000001 0.000015 0.000000 0.000000 0.000000 0.000000 0.000000 0.000000 -92.345848 0.222536 14.975244 -51.997871 41.046124 18.429426 -0.474812 -11.087345 42.431934 -5.981760 -17.566677 -12.457388 -10.691236 1.858422 39.858559 0.000005 0.000015 -26.137711 0.000074 -0.000021 -18.098867 0.000035 -0.000003 -0.000648 -15.551148 16.585522 -9.754682 -8.648180 -0.752665 2.635042 -8.634389 0.203512 2.503803 -0.000010 0.000186 -0.000013 -14.150517 6.803474 -10.562840 -8.598672 -0.906485 1.032523 -8.431428 0.068995 0.881776 -0.000238 -0.000038 -0.000038 -14.039927 -8.767895 -9.674500 -10.250178 1.859318 -1.444911 -10.169151 -0.095586 -1.134145 -0.000024 0.000009 -0.000006 -12.657397 -25.325785 -11.377580 -10.987903 3.570406 -4.167168 -10.799540 -0.316231 -3.540846 0.000238 -0.000017 -0.000021 0.000000 0.000000 0.000000 0.000000 0.000000 0.000000 -4.131518 4.991035 18.724871 -0.175460 -0.682202 15.161267 1.139983 -1.445410 12.310800 -1.240653 0.937579 -17.924175 0.000000 0.000000 0.000000 0.000000 0.000000 0.000000 0.000000 0.000000 0.000000 8.276971 12.822093 25.654160 0.217476 1.120158 9.046137 -4.048698 11.292878 13.031126 0.721612 -1.947019 -15.562725 0.000000 0.000000 0.000000 0.000000 0.000000 0.000000 0.000000 0.000000 0.000000 
-0.555552 87.783531 7.918377 0.490191 0.172404 -20.453402 -1.372080 -0.061548 11.304225 -0.890464 -0.119040 1.774223 7.511144 -4.591973 19.477005 5.970481 -0.879582 8.932961 23.035660 -3.626035 19.819427 3.907476 4.696912 4.389058 1.412312 1.462211 -20.631176 0.000000 0.000000 0.000000 94.409470 -1.079501 10.559381 50.044003 -19.141310 17.777552 -0.152754 10.164665 23.056890 9.325222 21.075089 -3.297842 10.735353 -1.844296 39.804447 0.000001 -0.000002 -26.409864 -0.000011 0.000034 -18.310499 0.000014 -0.000001 -0.000018 10.873641 16.709663 -10.507567 9.282995 -0.756177 -2.610636 9.345160 0.205400 -2.484562 0.000005 0.000017 -0.000006 12.047140 6.873209 -11.312671 9.298512 -0.906661 -1.053739 9.353997 0.076214 -0.897911 0.000005 -0.000043 0.000005 18.191519 -8.877813 -10.931438 11.293899 1.829789 1.570329 11.204432 -0.118032 1.226384 -0.000012 -0.000731 0.000014 23.808876 -25.331446 -12.172133 11.815385 3.483482 4.727183 11.743538 -0.416286 4.035774 0.000078 0.000005 0.000014 0.000000 0.000000 0.000000 0.000000 0.000000 0.000000 -92.475861 0.244385 15.000092 -52.134762 40.929264 18.158907 -0.512913 -11.325255 42.334690 -6.163247 -17.824759 -12.381033 -10.675217 1.859060 39.862953 0.000019 0.000024 -26.105995 0.000081 -0.000018 -18.073586 0.000069 0.000002 -0.000570 -15.653587 16.547388 -9.731144 -8.692672 -0.751550 2.640834 -8.675452 0.204748 2.508532 0.000001 0.000112 -0.000006 -14.186163 6.793647 -10.580622 -8.626894 -0.905612 1.033306 -8.461230 0.069883 0.883284 -0.000284 -0.000034 -0.000044 -13.938141 -8.766894 -9.705818 -10.233272 1.857326 -1.451508 -10.153966 -0.096130 -1.139490 0.000121 0.000014 -0.000003 -12.479391 -25.339981 -11.395157 -10.926483 3.565063 -4.199019 -10.748406 -0.318917 -3.569988 0.000262 0.000001 -0.000036 0.000000 0.000000 0.000000 0.000000 0.000000 0.000000 -4.089436 4.961507 18.725006 -0.171770 -0.682112 15.168955 1.069241 -1.381329 12.316804 -1.227378 0.931488 -17.904325 0.000000 0.000000 0.000000 0.000000 0.000000 0.000000 0.000000 0.000000 0.000000 8.319726 12.881055 25.756149 0.218463 1.139478 8.850099 -4.167621 11.295236 13.082735 0.750514 -1.958355 -15.549177 0.000000 0.000000 0.000000 0.000000 0.000000 0.000000 0.000000 0.000000 0.000000 
-0.572774 87.803444 7.898719 0.478279 0.171110 -20.444201 -1.370679 -0.071835 11.287641 -0.866340 -0.138225 1.790137 7.428835 -4.565052 19.471327 5.978786 -0.898361 8.959138 22.805162 -3.487378 19.742464 3.851495 4.711263 4.318368 1.382584 1.474063 -20.621746 0.000000 0.000000 0.000000 94.438362 -1.120770 10.545170 50.232307 -19.013279 17.575777 -0.178333 10.341798 23.384628 9.284790 21.318998 -3.403671 10.709837 -1.846054 39.812634 0.000004 -0.000003 -26.361212 -0.000014 0.000035 -18.273066 0.000013 -0.000002 -0.000017 10.711415 16.684299 -10.565376 9.234170 -0.757297 -2.618793 9.289244 0.204062 -2.493005 0.000006 0.000018 -0.000008 11.888572 6.868229 -11.326921 9.259688 -0.906432 -1.057024 9.316113 0.075864 -0.901635 0.000005 -0.000048 0.000006 18.003124 -8.884196 -10.961637 11.256467 1.829680 1.573795 11.179420 -0.117757 1.227658 -0.000011 -0.000597 0.000016 23.516903 -25.370190 -12.167890 11.774776 3.485551 4.741083 11.702639 -0.414611 4.045156 0.000106 0.000004 0.000006 0.000000 0.000000 0.000000 0.000000 0.000000 0.000000 -92.493484 0.245935 15.023516 -52.338051 40.721134 17.873110 -0.562194 -11.551744 42.258892 -6.321901 -18.046602 -12.283587 -10.679366 1.860391 39.860455 0.000017 0.000025 -26.117867 0.000083 -0.000019 -18.080585 0.000039 0.000001 -0.000488 -15.734453 16.532116 -9.737085 -8.733056 -0.751350 2.645274 -8.713199 0.205428 2.511159 -0.000000 0.000040 -0.000005 -14.220757 6.791127 -10.595572 -8.659534 -0.905340 1.033878 -8.497876 0.070580 0.884569 -0.000337 -0.000035 -0.000045 -13.882440 -8.771899 -9.727778 -10.242288 1.856859 -1.457579 -10.160131 -0.096503 -1.143710 0.000264 0.000014 -0.000003 -12.381373 -25.358685 -11.413414 -10.902518 3.564086 -4.225858 -10.727571 -0.320758 -3.591989 0.000271 0.000001 -0.000037 0.000000 0.000000 0.000000 0.000000 0.000000 0.000000 -4.073321 4.940520 18.713331 -0.169697 -0.686038 15.150996 0.998480 -1.308569 12.327641 -1.214360 0.929446 -17.922871 0.000000 0.000000 0.000000 0.000000 0.000000 0.000000 0.000000 0.000000 0.000000 8.345662 12.927722 25.821491 0.217507 1.150507 8.659326 -4.245594 11.319396 13.158376 0.771271 -1.959647 -15.554454 0.000000 0.000000 0.000000 0.000000 0.000000 0.000000 0.000000 0.000000 0.000000 
